#define dice_width 16
#define dice_height 16
static unsigned char dice_bits[] = {
   0xfe, 0x0f, 0xff, 0x1f, 0x03, 0x00, 0xf3, 0x7f, 0xfb, 0xff, 0x1b, 0xc7,
   0x1b, 0xc7, 0x1b, 0xc7, 0xfb, 0xf8, 0xfb, 0xf8, 0xfb, 0xf8, 0x1b, 0xc7,
   0x1a, 0xc7, 0x18, 0xc7, 0xf8, 0xff, 0xf0, 0x7f };
